<?xml version="1.0" standalone="no"?>
<!DOCTYPE svg PUBLIC "-//W3C//DTD SVG 1.1//EN" "http://www.w3.org/Graphics/SVG/1.1/DTD/svg11.dtd" >
<!--
2013-9-30: Created.
-->
<svg>
<metadata>
Created by iconfont
</metadata>
<defs>

<font id="iconfont" horiz-adv-x="1024" >
  <font-face
    font-family="iconfont"
    font-weight="500"
    font-stretch="normal"
    units-per-em="1024"
    ascent="896"
    descent="-128"
  />
    <missing-glyph />
    
    <glyph glyph-name="tupian" unicode="&#58880;" d="M937.814 770.274H86.28736c-44.7304 0-81.3199-33.2452-81.3199-78.0483v-782.5664c0-44.802 36.5885-81.4653 81.3199-81.4653h858.312704c44.7304 0 77.951 36.6633 77.951 81.4653V692.225792C1022.55 737.0289 982.5454 770.274 937.814 770.274zM332.7898 654.4504c68.8886 0 124.7416-55.8049 124.7416-124.6454 0-68.8404-55.852-124.6454-124.7416-124.6454s-124.7416 55.8049-124.7416 124.6454C208.0481 598.6465 263.9002 654.4504 332.7898 654.4504zM119.508-73.0156c-9.3532 0-18.7791 3.2225-26.4356 9.815-17.0588 14.635-19.0454 40.3425-4.4104 57.4269l186.9906 281.855c13.8854 16.2345 37.9218 18.9491 55.1014 6.2269l164.9889-122.5349 295.6196 335.8177c14.0052 17.5677 88.2739 100.3162 131.7437 6.4686 0.0481 0.1454 0.0973-124.0873 0.1454-250.9363 0.0481-132.3039 0.0727-324.0182 0.0727-324.0182C922.4284-72.6746 119.895-73.0156 119.508-73.0156z"  horiz-adv-x="1024" />

    
    <glyph glyph-name="wenjian" unicode="&#58881;" d="M858.114245 666.189987c-0.004093 0.064468-0.011257 0.127913-0.01535 0.192382-0.036841 0.615007-0.097218 1.223874-0.171922 1.827625-0.011257 0.086981-0.02149 0.173962-0.032747 0.260943-0.376592 2.826372-1.15536 5.52176-2.281043 8.029884-0.005117 0.011256-0.010233 0.022513-0.01535 0.033769-0.557725 1.240247-1.199364 2.435469-1.917754 3.576455-0.078798 0.124843-0.157596 0.248663-0.23844 0.37146-0.314168 0.481977-0.637546 0.956791-0.979344 1.417279-0.125872 0.170892-0.257884 0.337691-0.387849 0.505513-0.25686 0.332575-0.520884 0.660032-0.791048 0.980327-0.195459 0.233314-0.393989 0.463558-0.597635 0.690732-0.191366 0.212848-0.388872 0.417509-0.585355 0.623193-0.212856 0.225127-0.413433 0.457418-0.634476 0.676405L689.67626 842.342939c-4.525245 4.585435-10.560953 7.66968-17.301747 8.456602-0.01842 0.002047-0.035817 0.004093-0.054237 0.00614-0.655966 0.075725-1.316026 0.13303-1.983249 0.163729-0.148385 0.007163-0.296771 0.00614-0.445156 0.011256-0.309051 0.00921-0.618102 0.023536-0.9292 0.023536L188.712558 851.004203c-16.079869 0-29.109137-13.028735-29.109137-29.123294l0-873.794c0-16.093537 13.029268-29.122271 29.109137-29.122271l640.339624 0c16.079869 0 29.108114 13.028735 29.108114 29.122271L858.160296 664.579303C858.160296 665.119609 858.142899 665.656845 858.114245 666.189987zM698.072832 752.446513l59.786044-58.730613-59.786044 0L698.072832 752.446513zM799.940998-22.77547 217.807369-22.77547 217.807369 792.758638l422.046165 0 0-128.179334c0-16.093537 13.058945-29.122271 29.109137-29.122271l130.978327 0L799.940998-22.77547zM717.886898 380.038782 314.515813 380.038782c-16.079869 0-29.109137-13.028735-29.109137-29.123294 0-16.107863 13.029268-29.136597 29.109137-29.136597l403.370061 0c16.053262 0 29.111184 13.027711 29.111184 29.136597C746.998082 367.010047 733.939137 380.038782 717.886898 380.038782zM285.406676 473.25072c0-16.107863 13.029268-29.136597 29.109137-29.136597l403.370061 0c16.053262 0 29.111184 13.028735 29.111184 29.136597 0 16.09456-13.058945 29.123294-29.111184 29.123294L314.515813 502.374014C298.435944 502.374014 285.406676 489.344257 285.406676 473.25072zM717.886898 257.731178 314.515813 257.731178c-16.079869 0-29.109137-13.027711-29.109137-29.121248 0-16.107863 13.029268-29.136597 29.109137-29.136597l403.370061 0c16.053262 0 29.111184 13.027711 29.111184 29.136597C746.998082 244.702444 733.939137 257.731178 717.886898 257.731178zM717.886898 135.396969 314.515813 135.396969c-16.079869 0-29.109137-13.028735-29.109137-29.123294 0-16.10684 13.029268-29.136597 29.109137-29.136597l403.370061 0c16.053262 0 29.111184 13.028735 29.111184 29.136597C746.998082 122.367211 733.939137 135.396969 717.886898 135.396969z"  horiz-adv-x="1024" />

    
    <glyph glyph-name="qunzu" unicode="&#58905;" d="M341.296 408.115c-62.59 28.119-104.402 90.17-104.402 163.23 0 99.281 80.485 179.763 179.77 179.763s179.769-80.482 179.769-179.762c0-72.85-41.693-134.802-103.995-163.038 154.102-33.543 270.8-167.271 278.44-329.532l-708.162-0.464c9.787 160.141 125.862 295.634 278.58 329.803zM566.12 730.305c41.408-40.134 67.144-96.343 67.144-158.564 0-57.474-21.96-109.818-57.946-149.103l0.005-0.001c112.047-48.194 196.746-147.83 224.358-269.175v0.005l160.123 0.105C953.014 297.78 849.3 416.632 712.34 446.443c55.369 25.095 92.425 80.156 92.425 144.9 0 88.235-71.53 159.764-159.772 159.764-29.399 0-56.945-7.94-80.608-21.794"  horiz-adv-x="1024" />

    
    <glyph glyph-name="yinle" unicode="&#59060;" d="M785.066667 768l-426.666667-36.266667c-21.333333-2.133333-38.4-21.333333-38.4-42.666666v-529.066667c-12.8 6.4-27.733333 12.8-42.666667 12.8-46.933333 0-85.333333-38.4-85.333333-85.333333s38.4-85.333333 85.333333-85.333334 85.333333 38.4 85.333334 85.333334v469.333333l426.666666 42.666667v-311.466667c-12.8 6.4-27.733333 12.8-42.666666 12.8-46.933333 0-85.333333-38.4-85.333334-85.333333s38.4-85.333333 85.333334-85.333334 85.333333 38.4 85.333333 85.333334V725.333333c0 25.6-21.333333 44.8-46.933333 42.666667z"  horiz-adv-x="1024" />

    
    <glyph glyph-name="zhuxiao" unicode="&#58902;" d="M768.215018 740.155216c-1.548127 1.032085-3.096254 2.064169-4.816395 3.096254-1.032085 0.688056-3.268268 1.720141-3.268269 1.720141-8.256677 4.128339-17.717453 6.536536-27.522257 6.536536-34.058794 0-61.753066-27.694272-61.753066-61.753066 0-24.081975 14.793214-44.379641 33.88678-55.560557 91.511507-60.892995 151.88846-164.961532 151.888459-283.135226 0-187.667395-152.060474-339.899882-339.899882-339.899883S177.00252 163.219889 177.00252 350.887284c0 118.173694 60.376953 222.242231 151.888459 283.135226 19.781623 11.352931 33.714766 31.478582 33.714766 55.560557 0 34.058794-27.694272 61.753066-61.753066 61.753066-9.804804 0-19.093566-2.236183-27.522257-6.364522l-2.06417-1.032085c-2.580212-1.376113-4.988409-2.92424-7.224592-4.644381-126.774399-82.566773-210.545271-225.682513-210.545272-388.407861 0-255.956996 207.449017-463.406014 463.406014-463.406014s463.406014 207.449017 463.406014 463.406014c0 163.241391-84.458928 306.701159-212.093398 389.267932zM516.902402 258.171678c34.058794 0 61.753066 27.694272 61.753066 61.753066V814.293297c0 34.058794-27.694272 61.753066-61.753066 61.753066-34.058794 0-61.753066-27.694272-61.753066-61.753066v-494.196539c0-34.230808 27.522258-61.92508 61.753066-61.92508z"  horiz-adv-x="1024" />

    
    <glyph glyph-name="duoxuankuangmoren" unicode="&#59051;" d="M856.346629-63.574688H168.027901c-56.921407 0-103.247502 46.320978-103.247502 103.247502V727.991542c0 56.921407 46.326095 103.247502 103.247502 103.247502h688.318728c56.926524 0 103.247502-46.326095 103.247502-103.247502V39.673837c0.001023-56.927547-46.319955-103.248525-103.247502-103.248525zM168.027901 762.408399c-18.964934 0-34.415834-15.4509-34.415834-34.415834V39.673837c0-18.99768 15.4509-34.415834 34.415834-34.415834h688.318728c18.99768 0 34.415834 15.418154 34.415834 34.415834V727.991542c0 18.964934-15.418154 34.415834-34.415834 34.415834H168.027901z"  horiz-adv-x="1024" />

    
    <glyph glyph-name="zhaopian" unicode="&#58913;" d="M512 512a192 192 0 1 1 0-384 192 192 0 0 1 0 384z m0-256a64 64 0 1 0 0 128 64 64 0 0 0 0-128z m384 512h-128a128 128 0 0 1-128 128H384a128 128 0 0 1-128-128H128a128 128 0 0 1-128-128v-640a128 128 0 0 1 128-128h768a128 128 0 0 1 128 128V640a128 128 0 0 1-128 128z m0-704a64 64 0 0 0-64-64H192a64 64 0 0 0-64 64V576a64 64 0 0 0 64 64h192V704a64 64 0 0 0 64 64h128a64 64 0 0 0 64-64v-64h192a64 64 0 0 0 64-64v-512z"  horiz-adv-x="1024" />

    
    <glyph glyph-name="liebiao" unicode="&#58882;" d="M864.6 597.4H160c-34.9 0-63.4 28.5-63.4 63.4s28.5 63.4 63.4 63.4h704.6c34.9 0 63.4-28.5 63.4-63.4s-28.5-63.4-63.4-63.4zM928 383.6c0 34.9-28.5 63.4-63.4 63.4H160c-34.9 0-63.4-28.5-63.4-63.4s28.5-63.4 63.4-63.4h704.6c34.9 0 63.4 28.6 63.4 63.4zM928 106.5c0 34.9-28.5 63.4-63.4 63.4H160c-34.9 0-63.4-28.5-63.4-63.4s28.5-63.4 63.4-63.4h704.6c34.9 0 63.4 28.5 63.4 63.4z"  horiz-adv-x="1024" />

    
    <glyph glyph-name="fuxuankuang11" unicode="&#58888;" d="M75.09333333 966.54222222h873.81333334c80.09955555 0 145.63555555-65.536 145.63555555-145.63555555v-873.81333334c0-80.09955555-65.536-145.63555555-145.63555555-145.63555555H75.09333333c-80.09955555 0-145.63555555 65.536-145.63555555 145.63555555V820.90666667C-70.54222222 901.00622222-5.00622222 966.54222222 75.09333333 966.54222222z m123.79022222-567.97866667l-50.97244444-58.25422222L402.77333333 92.72888889000001l458.752 458.752-50.97244444 50.97244444-407.77955556-407.77955555-203.88977778 203.88977777z"  horiz-adv-x="1024" />

    
    <glyph glyph-name="xinjian" unicode="&#59316;" d="M944.438 458.893H586.893V816.438c0 8.559-7.004 15.562-15.562 15.562H452.668c-8.559 0-15.562-7.004-15.562-15.562v-357.545H79.562c-8.559 0-15.562-7.003-15.562-15.562v-118.663c0-8.559 7.004-15.562 15.562-15.562h357.545v-357.545c0-8.559 7.003-15.562 15.562-15.562h118.663c8.559 0 15.562 7.004 15.562 15.562V309.107h357.545c8.559 0 15.562 7.004 15.562 15.562V443.332c-0.001 8.559-7.005 15.561-15.563 15.561z"  horiz-adv-x="1024" />

    
    <glyph glyph-name="biji" unicode="&#58893;" d="M530.975 322.27c37.806 57.455 176.293 263.933 228.158 308.35-66.135-157.529-196.404-319.61-274.365-474.165 144.019-48.795 209.288 9.045 288.74 76.374l-78.73 15.107c99.987 32.764 93 20.63 128.017 69.031 27.78 38.384 50.835 90.192 59.284 144.299l-65.067-8.103c20.756 12.086 66.991 33.323 74.334 45.168C910.986 530 962.57 832.846 963.168 895.796 764.33 893.958 446.636 478.557 423.655 280.029c-23.123-199.608-250.319-501.222 107.319 42.243z m296.4-112.237c59.303-35.362 94.579-81.03 94.579-131.923 0-274.538-861.12-274.538-861.12 0 0 126.073 195.605 182.615 296.939 198.106-2.386-16.964-7.592-34.265-14.395-51.96-69.647-12.74-233.595-59.862-233.595-146.146 0-207.383 763.221-207.383 763.221 0 0 36.392-32.783 71.119-86.948 99.034 13.866 10.094 27.472 21.237 41.319 32.89z"  horiz-adv-x="1024" />

    
    <glyph glyph-name="wenjianjia" unicode="&#59228;" d="M861.04-7.895c0-30.91-25.074-55.877-55.924-55.877H106.413l97.848 461.131c0 30.88 24.92 55.907 55.77 55.907H902.96c30.856 0 55.829-25.027 55.829-55.907L861.04-7.895zM218.163 495.208h628.87v54.891c0 30.88-25.076 55.906-55.877 55.906H455.788v50.659c0 30.827-25.027 55.878-55.878 55.878H120.367c-30.855 0-55.877-25.05-55.877-55.878v-664.559l97.747 447.176c0 30.881 25.074 55.927 55.925 55.927z m0 0"  horiz-adv-x="1024" />

    
    <glyph glyph-name="weibiaoti5" unicode="&#58883;" d="M450.516401 729.6c13.6-36 52-60.8 92-62.4 11.2 0 12.8 0 23.2 0l8 0 369.6 0c33.6 0 61.6-28.8 61.6-62.4l0-248 0-124 0-186.4c0-33.6-28-62.4-61.6-62.4L80.916401-16c-33.6 0-61.6 28.8-61.6 62.4L19.316401 729.6c0 33.6 28 62.4 61.6 62.4l308 0M388.916401 791.2L388.916401 791.2c29.6-1.6 53.6-37.6 61.6-62.4"  horiz-adv-x="1025" />

    
    <glyph glyph-name="quanbu" unicode="&#59094;" d="M59.559565 498.043927l344.490554-197.917503c79.430306-45.712653 209.619942-45.712653 288.977108 0l344.490554 197.771223c79.430306 45.639513 79.430306 120.242563 0 165.955215L693.100367 861.770365c-79.357166 45.639513-209.546802 45.639513-288.903967 0L59.632705 663.852862c-79.430306-45.566373-79.430306-120.315703 0-165.808935zM1037.444641 390.162066l-344.344274-212.106711c-79.430306-49.003964-209.546802-49.003964-288.977108 0l-344.490554 212.106711a148.547838 148.547838 0 0 0-38.544909 33.205671c-37.594086-46.956037-25.013964-105.760794 38.471769-144.817685l344.490554-212.252991c79.503446-49.003964 209.619942-49.003964 289.050248 0l344.490554 212.326131c63.339452 38.983751 76.065855 97.788508 38.471769 144.817685a152.35113 152.35113 0 0 0-38.618049-33.278811zM1037.444641 232.617978l-344.344274-212.106711c-79.430306-49.003964-209.546802-49.003964-288.977108 0l-344.490554 212.106711a148.547838 148.547838 0 0 0-38.544909 33.278811c-37.594086-47.029178-25.013964-105.833935 38.471769-144.817685l344.490554-212.326131c79.503446-49.003964 209.619942-49.003964 289.050248 0l344.490554 212.106711c63.339452 39.056891 76.065855 97.861648 38.471769 144.817685a155.34988 155.34988 0 0 0-38.618049-33.059391z"  horiz-adv-x="1097" />

    
    <glyph glyph-name="zhuxiao1" unicode="&#58884;" d="M230.776 77.00800000000004c0-56.512 45.623-102.616 102.138-102.616h358.172c56.515 0 102.533 46.104 102.533 102.616V486.046H230.776v-409.038z m383.756 332.575c0 14.115 11.457 25.582 25.584 25.582 14.127 0 25.584-11.467 25.584-25.582V102.59000000000003c0-14.14-11.457-25.583-25.584-25.583-14.127 0-25.584 11.443-25.584 25.583V409.583z m-127.918 0c0 14.115 11.456 25.582 25.584 25.582 14.127 0 25.583-11.467 25.583-25.582V102.59000000000003c0-14.14-11.456-25.583-25.583-25.583-14.128 0-25.584 11.443-25.584 25.583V409.583z m-127.919 0c0 14.115 11.457 25.582 25.584 25.582 14.127 0 25.584-11.467 25.584-25.582V102.59000000000003c0-14.14-11.457-25.583-25.584-25.583-14.127 0-25.584 11.443-25.584 25.583V409.583z m434.726 281.124H640.116v51.451c0 28.256-23.108 50.88-51.365 50.88H435.25c-28.258 0-50.97-22.624-50.97-50.88v-51.45h-153.7c-28.258 0-50.97-22.625-50.97-50.88v-51.166c0-28.256 22.687-51.45 50.931-51.45h562.932c28.231 0 51.314 23.194 51.314 51.45v51.166c0 28.254-23.108 50.88-51.365 50.88z m-204.472 0H435.446v25.869c0 14.139 11.258 25.297 25.387 25.297h102.334c14.128 0 25.782-11.158 25.782-25.297v-25.869z"  horiz-adv-x="1024" />

    
    <glyph glyph-name="VIP-" unicode="&#58922;" d="M1799.757576 831.937439H207.202346c-33.032258 0-64.062561-13.012708-87.085044-36.035191s-36.035191-54.052786-36.035191-87.085044v-649.634408c0-33.032258 13.012708-64.062561 36.035191-87.085044s54.052786-36.035191 87.085044-36.035191h1593.556207c32.031281 0 64.062561 13.012708 87.085044 36.035191s36.035191 54.052786 36.035191 87.085044v650.635386c0 33.032258-13.012708 64.062561-36.035191 87.085044-24.02346 23.022483-55.053763 35.034213-88.086021 35.034213zM550.537634 118.240469c-21.020528 0-39.038123 20.01955-55.053763 60.058651L312.304985 650.760508h142.138808l124.121212-324.316715 206.201368 324.316715h143.139785L620.606061 177.298143c-25.024438-40.039101-49.047898-59.057674-70.068427-59.057674z m335.327469 8.00782l74.072336 525.513197H1091.065494l-74.072337-525.513197H885.865103z m806.787878 328.320626c-8.00782-59.057674-36.035191-107.104594-82.080156-144.140763-44.043011-35.034213-95.092864-52.050831-153.14956-52.05083h-220.215054l-19.018573-132.129033h-131.128054l38.037145 267.260997h363.354839c17.016618 0 34.033236 6.005865 48.046921 17.016618s22.021505 26.025415 25.024438 45.043988c3.002933 19.018573-1.000978 33.032258-12.011731 44.043011-11.010753 11.010753-25.024438 16.01564-43.042033 16.01564h-363.354838l106.103616 135.131965h264.258065c58.056696 0 103.100684-17.016618 138.134897-52.050831 35.034213-37.036168 49.047898-85.083089 41.040078-144.140762z"  horiz-adv-x="2001" />

    
    <glyph glyph-name="yunpan" unicode="&#59115;" d="M763.733333 546.133333C729.6 652.8 631.466667 725.333333 512 725.333333 396.8 725.333333 298.666667 652.8 260.266667 554.666667 157.866667 520.533333 85.333333 422.4 85.333333 311.466667c0-145.066667 119.466667-260.266667 268.8-260.266667 34.133333 0 302.933333-8.533333 320-8.533333 149.333333 0 268.8 115.2 268.8 260.266666-4.266667 110.933333-76.8 209.066667-179.2 243.2z m-93.866666-392.533333h-106.666667s-166.4 8.533333-162.133333 166.4c-4.266667 25.6-25.6 42.666667-55.466667 42.666667-25.6 0-46.933333-17.066667-51.2-38.4v-21.333334c0-55.466667 17.066667-106.666667 46.933333-145.066666-85.333333 4.266667-153.6 72.533333-153.6 153.6 0 46.933333 21.333333 89.6 55.466667 119.466666 29.866667 25.6 64 38.4 106.666667 38.4h4.266666c34.133333 0 59.733333-12.8 85.333334-29.866666 4.266667-4.266667 8.533333-8.533333 17.066666-12.8 29.866667-25.6 51.2-64 51.2-106.666667v-21.333333c8.533333-21.333333 25.6-38.4 51.2-38.4h106.666667s64 8.533333 51.2 68.266666c-8.533333 21.333333-25.6 38.4-51.2 38.4h-59.733333c-4.266667 34.133333-12.8 46.933333-29.866667 76.8-4.266667 8.533333-12.8 17.066667-17.066667 25.6-12.8 17.066667-29.866667 34.133333-51.2 46.933334-17.066667 12.8-29.866667 21.333333-51.2 29.866666-12.8 8.533333-38.4 17.066667-64 21.333334 29.866667 34.133333 72.533333 55.466667 119.466667 55.466666 51.2 0 98.133333-25.6 128-59.733333 0-4.266667 4.266667-8.533333 4.266667-12.8 17.066667-25.6 25.6-55.466667 25.6-85.333333 38.4 0 76.8-12.8 102.4-38.4 34.133333-29.866667 55.466667-72.533333 55.466666-119.466667 4.266667-81.066667-68.266667-153.6-157.866666-153.6z"  horiz-adv-x="1024" />

    
    <glyph glyph-name="zuijin_huaban" unicode="&#59008;" d="M512 889.173333C232.106667 889.173333 6.826667 663.893333 6.826667 384s225.28-505.173333 505.173333-505.173333 505.173333 225.28 505.173333 505.173333S791.893333 889.173333 512 889.173333z m279.893333-546.133333H512c-20.48 0-34.133333 13.653333-34.133333 34.133333V684.373333c0 20.48 13.653333 34.133333 34.133333 34.133334s34.133333-13.653333 34.133333-34.133334v-273.066666h252.586667c20.48 0 34.133333-13.653333 34.133333-34.133334s-20.48-34.133333-40.96-34.133333z"  horiz-adv-x="1024" />

    
    <glyph glyph-name="check-all" unicode="&#58903;" d="M146.285714-128a146.285714 146.285714 0 0 0-146.285714 146.285714V749.714286a146.285714 146.285714 0 0 0 146.285714 146.285714h731.428572a146.285714 146.285714 0 0 0 146.285714-146.285714v-731.428572a146.285714 146.285714 0 0 0-146.285714-146.285714zM73.142857 749.714286v-731.428572a73.142857 73.142857 0 0 1 73.142857-73.142857h731.428572a73.142857 73.142857 0 0 1 73.142857 73.142857V749.714286a73.142857 73.142857 0 0 1-73.142857 73.142857H146.285714a73.142857 73.142857 0 0 1-73.142857-73.142857z m219.428572-658.285715a73.142857 73.142857 0 0 0-73.142858 73.142858V603.4285709999999a73.142857 73.142857 0 0 0 73.142858 73.142858h438.857142a73.142857 73.142857 0 0 0 73.142858-73.142858v-438.857142a73.142857 73.142857 0 0 0-73.142858-73.142858z"  horiz-adv-x="1024" />

    
    <glyph glyph-name="duoxuankuang1" unicode="&#58885;" d="M892.413-61.567999999999984H131.65c-38.07 0-69.005 30.936-69.005 69.005V760.625c0 38.007 30.936 68.942 69.005 68.942h760.764c38.007 0 68.942-30.936 68.942-68.942v-753.188c0-38.069-30.936-69.005-68.943-69.005ZM131.65 764.919l-4.356-757.481 765.12-4.356c2.273 0 4.293 2.02 4.293 4.356V760.625l-765.057 4.294Z"  horiz-adv-x="1024" />

    
    <glyph glyph-name="ic_build_px" unicode="&#58889;" d="M968.533333 87.466667L578.133333 477.866667A275.84 275.84 0 0 1 200.533333 825.6l185.6-185.6-130.133333-130.133333-185.6 185.6a275.84 275.84 0 0 1 347.733333-377.6l390.4-390.4a41.173333 41.173333 0 0 1 59.733334 0l100.266666 100.266666a41.173333 41.173333 0 0 1 0 59.733334z"  horiz-adv-x="1024" />

    
    <glyph glyph-name="baoxianxiang" unicode="&#58895;" d="M720.4 522.9H305.6c-22.9 0-41.6 18.7-41.6 41.6V731.3c0 22.9 18.7 41.6 41.6 41.6h414.8c22.9 0 41.6-18.7 41.6-41.6v-166.8c0-22.9-18.7-41.6-41.6-41.6zM513-6.4c-228.2 0-415 186.7-415 415V616.1c0 22.8 18.7 41.5 41.5 41.5h747c22.8 0 41.5-18.7 41.5-41.5v-207.5c0-228.2-186.8-415-415-415zM513 437m-112 0a112 112 0 1 1 224 0 112 112 0 1 1-224 0ZM512 151.1c-22.1 0-40 17.9-40 40v192c0 22.1 17.9 40 40 40s40-17.9 40-40v-192c0-22.1-17.9-40-40-40z"  horiz-adv-x="1024" />

    
    <glyph glyph-name="shangchuan" unicode="&#58983;" d="M853.333333 63.146667H170.666667v273.066666H34.133333v-409.6h955.733334v409.6h-136.533334v-273.066666zM443.733333 622.933333v-430.08h136.533334V622.933333l122.88-116.053333 95.573333 95.573333L512 882.346667l-286.72-273.066667 95.573333-95.573333L443.733333 622.933333z"  horiz-adv-x="1024" />

    
    <glyph glyph-name="shipin" unicode="&#59092;" d="M893.155556 896H130.844444C56.888889 896 0 839.111111 0 765.155556v-762.311112c0-68.266667 56.888889-125.155556 125.155556-125.155555h762.311111c68.266667 0 125.155556 56.888889 125.155555 125.155555V765.155556C1018.311111 839.111111 961.422222 896 893.155556 896z m-227.555556-563.2l-256-147.911111c-34.133333-17.066667-79.644444 5.688889-79.644444 45.511111V537.6c0 39.822222 45.511111 68.266667 79.644444 45.511111l256-159.288889c34.133333-22.755556 34.133333-68.266667 0-91.022222z"  horiz-adv-x="1024" />

    
    <glyph glyph-name="suolvetu" unicode="&#58910;" d="M96 800v-256h256V800H96zM64 896h320a64 64 0 0 0 64-64v-320a64 64 0 0 0-64-64H64a64 64 0 0 0-64 64V832a64 64 0 0 0 64 64z m608-96v-256h256V800h-256z m-32 96h320a64 64 0 0 0 64-64v-320a64 64 0 0 0-64-64H640a64 64 0 0 0-64 64V832a64 64 0 0 0 64 64zM96 224v-256h256v256H96z m-32 96h320a64 64 0 0 0 64-64v-320a64 64 0 0 0-64-64H64a64 64 0 0 0-64 64V256a64 64 0 0 0 64 64z m608-96v-256h256v256h-256z m-32 96h320a64 64 0 0 0 64-64v-320a64 64 0 0 0-64-64H640a64 64 0 0 0-64 64V256a64 64 0 0 0 64 64z"  horiz-adv-x="1024" />

    
    <glyph glyph-name="fenxiang" unicode="&#58941;" d="M746.7 161.5c-35 0-66.9-12.9-91.4-34l-319 224.4c6 15.6 9.4 32.5 9.4 50.2 0 12.7-1.8 25-5 36.7L655 636.9c24.6-21.3 56.6-34.2 91.7-34.2 77.5 0 140.4 62.8 140.4 140.4 0 77.5-62.8 140.4-140.4 140.4s-140.3-63-140.3-140.6c0-13.4 2-26.3 5.5-38.5L298.5 506.9c-24.8 22-57.3 35.5-93.1 35.5-77.5 0-140.4-62.8-140.4-140.3 0-77.5 62.8-140.4 140.4-140.4 30.6 0 58.9 9.9 82 26.6L612 59.9c-3.5-12.3-5.6-25.3-5.6-38.8 0-77.5 62.8-140.4 140.4-140.4s140.4 62.8 140.4 140.4c-0.1 77.6-63 140.4-140.5 140.4z"  horiz-adv-x="1024" />

    
    <glyph glyph-name="down" unicode="&#58886;" d="M524.97621267 680.90396471l0-389.28638148L488.93117725 291.61758323000004 488.93117725 680.90396471l36.04503542-1e-8zM632.83850435 287.44403924000005L509.73131713 77.82909913000003l-126.43440831 209.61494011 249.54159553 0z"  horiz-adv-x="1024" />

    
    <glyph glyph-name="xiazai" unicode="&#58918;" d="M0 164.571429h146.285714v-292.571429H0v292.571429z m146.285714-146.285715h877.714286v-146.285714H146.285714v146.285714z m731.428572 146.285715h146.285714v-219.428572h-146.285714v219.428572zM438.857143 896h146.285714v-438.857143H438.857143V896z m73.142857-804.571429L146.285714 457.142857h731.428572z"  horiz-adv-x="1024" />

    
    <glyph glyph-name="xinjianwenjianjia" unicode="&#59427;" d="M768.149 256.035V447.791h-64.012v-191.756H512.099v-64.248l192.038 0.076v-191.502h64.012V192.117h192.037l-1.127 64.173zM128.025 704.216H294.42l127.578-128.212 25.925 0.164 0.164-0.164h448.087v-192.131h63.158l0.854 256.174H449.208L321.105 768.151l-0.592-0.592-0.451 0.451H64.012l-0.679-767.649h512.779v63.918H128.025z"  horiz-adv-x="1024" />

    
    <glyph glyph-name="up" unicode="&#59428;" d="M499.02378733 87.09603529000003l0 389.28638148L535.06882275 476.38241677 535.06882275 87.09603529000003l-36.04503542 1e-8zM391.16149565 480.55596076L514.26868287 690.17090087l126.43440831-209.61494011-249.54159553 0z"  horiz-adv-x="1024" />

    


  </font>
</defs>
</svg>
